<mxfile host="app.diagrams.net" modified="2024-05-13T07:19:17.654Z" agent="Mozilla/5.0 (Windows NT 10.0; Win64; x64) AppleWebKit/537.36 (KHTML, like Gecko) Chrome/124.0.0.0 Safari/537.36" version="24.4.0" etag="VRkzRoDsS9eOn9sOIoxJ" type="github">
  <diagram name="第 1 页" id="TSNchrlAM8zm3cIL5AB7">
    <mxGraphModel>
      <root>
        <mxCell id="0" />
        <mxCell id="1" parent="0" />
      </root>
    </mxGraphModel>
  </diagram>
</mxfile>
